<svg width="80.000000" height="80.000000" viewBox="0 0 80 80" fill="none" xmlns="http://www.w3.org/2000/svg" xmlns:xlink="http://www.w3.org/1999/xlink">
	<desc>
			Created with Pixso.
	</desc>
	<defs/>
	<path id="3" d="M50.06 46.28C50.06 51.64 46.86 56 40.1 56C35.7 56 30.94 53.76 30.82 46.68L36.46 46.68C36.54 49.16 37.78 50.84 40.06 50.84C42.3 50.84 44.02 49.2 44.02 46.36C44.02 43.52 42.26 42.08 39.38 42.08C38.14 42.08 36.94 42.28 36.74 42.32L36.74 37.48C41.5 37.2 42.78 35.2 42.78 33.12C42.78 31 41.5 29.96 39.38 29.96C38.46 29.96 37.54 30.12 36.78 30.44L36.78 34.48L31.9 34.48L31.9 26.96C33.9 25.76 36.9 24.88 40.34 24.88C45.78 24.88 48.78 27.84 48.78 32.04C48.78 35.8 46.3 38.08 43.74 38.88L43.74 39.12C47.62 39.56 50.06 42.48 50.06 46.28Z" fill="#47FDA9" fill-opacity="1.000000" fill-rule="evenodd"/>
	<circle id="Ellipse 33" cx="40.000000" cy="40.000000" r="39.000000" stroke="#39404C" stroke-opacity="1.000000" stroke-width="2.000000"/>
</svg>
