<svg width="80.000000" height="80.000000" viewBox="0 0 80 80" fill="none" xmlns="http://www.w3.org/2000/svg" xmlns:xlink="http://www.w3.org/1999/xlink">
	<desc>
			Created with Pixso.
	</desc>
	<defs/>
	<path id="2" d="M49.43 49.44L49.43 54.6L30.79 54.6L30.79 49.56C30.79 49.56 36.43 43.04 38.51 40.72C40.95 37.84 42.31 35.52 42.31 32.88C42.31 30.68 41.35 29.04 38.63 29.04C37.75 29.04 36.91 29.2 36.11 29.6L36.11 33.48L31.19 33.48L31.19 25.96C33.11 24.64 36.27 23.88 39.71 23.88C45.31 23.88 48.35 27.2 48.35 32.32C48.35 36.88 46.03 40.12 42.59 44C41.23 45.48 39.35 47.64 37.79 49.44L49.43 49.44Z" fill="#48CCFD" fill-opacity="1.000000" fill-rule="evenodd"/>
	<circle id="Ellipse 33" cx="40.000000" cy="40.000000" r="39.000000" stroke="#39404C" stroke-opacity="1.000000" stroke-width="2.000000"/>
</svg>
